<svg xmlns="http://www.w3.org/2000/svg" width="19.427" height="19.462" viewBox="0 0 19.427 19.462">
  <path id="Icon_feather-phone-call" data-name="Icon feather-phone-call" d="M14.548,5.018a4.4,4.4,0,0,1,3.474,3.474M14.548,1.5a7.916,7.916,0,0,1,6.993,6.984m-.88,7.019v2.639A1.759,1.759,0,0,1,18.744,19.9a17.407,17.407,0,0,1-7.591-2.7,17.152,17.152,0,0,1-5.278-5.278A17.407,17.407,0,0,1,3.175,4.3,1.759,1.759,0,0,1,4.925,2.38H7.564A1.759,1.759,0,0,1,9.323,3.893a11.294,11.294,0,0,0,.616,2.472,1.759,1.759,0,0,1-.4,1.856L8.426,9.337A14.074,14.074,0,0,0,13.7,14.615L14.821,13.5a1.759,1.759,0,0,1,1.856-.4,11.294,11.294,0,0,0,2.472.616A1.759,1.759,0,0,1,20.661,15.5Z" transform="translate(-2.667 -0.948)" fill="none" stroke="#fff" stroke-linecap="round" stroke-linejoin="round" stroke-width="1"/>
</svg>
