<svg xmlns="http://www.w3.org/2000/svg" width="21.5" height="23.061" viewBox="0 0 21.5 23.061">
  <path id="Path_2235" data-name="Path 2235" d="M11.707,15.453a6.246,6.246,0,1,1,6.246-6.246.48.48,0,1,0,.961,0,7.207,7.207,0,1,0-7.207,7.207.48.48,0,0,0,0-.961Zm0-10.089A2.4,2.4,0,0,0,9.3,7.722l.953.087a1.437,1.437,0,0,1,1.436-1.485,1.265,1.265,0,0,1,1.426,1.231c0,.6-.352.9-.876,1.324a2.3,2.3,0,0,0-1.136,1.769v.48h.961v-.48c0-.416.32-.649.781-1.025a2.585,2.585,0,0,0,1.26-2.068A2.182,2.182,0,0,0,11.7,5.363Zm.362,6.726h-.961v.961h.961ZM24.2,11.128H15.55a2.03,2.03,0,0,0-2.042,1.922v8.168A2.03,2.03,0,0,0,15.55,23.14h2.642l1.3,1.729a.48.48,0,0,0,.769,0l1.3-1.729H24.2A1.825,1.825,0,0,0,26,21.218V13.05A1.825,1.825,0,0,0,24.2,11.128Zm.841,10.089a.867.867,0,0,1-.841.961H21.316a.48.48,0,0,0-.384.192L19.874,23.78l-1.057-1.409a.48.48,0,0,0-.384-.192H15.55a1.072,1.072,0,0,1-1.081-.961V13.05a1.072,1.072,0,0,1,1.081-.961H24.2a.867.867,0,0,1,.841.961Zm-5.685-2.641-2.023-2.023-.679.679,2.4,2.4a.479.479,0,0,0,.34.141h.027a.481.481,0,0,0,.349-.179l3.844-4.8-.751-.6Z" transform="translate(-4.5 -2)" fill="#fff"/>
</svg>
