<svg xmlns="http://www.w3.org/2000/svg" width="32" height="32" viewBox="0 0 32 32">
  <g id="Group_146504" data-name="Group 146504" transform="translate(-1063 3871)">
    <rect id="Rectangle_22475" data-name="Rectangle 22475" width="32" height="32" rx="12" transform="translate(1063 -3871)" fill="#edf6ff"/>
    <g id="icon_nps" transform="translate(1067 -3867)">
      <rect id="Rectangle_22894" data-name="Rectangle 22894" width="24" height="24" fill="none"/>
      <path id="Path_107652" data-name="Path 107652" d="M8.16,15.809v-.453H1.872v.452H.408V6.983c0-.972-.588-1.771-.351-2.722a.891.891,0,0,1,.351-.495v0l.016-.008a1.721,1.721,0,0,1,.95-.422,2.664,2.664,0,0,1,.342-.025H1.77c.756.014,1.474.422,1.476,1.925v5.151L7.892,9.3h0c.5.017,1.731.18,1.732,1.365v5.143ZM3.688,5.545A1.7,1.7,0,0,1,5.4,4.126h.119a1.54,1.54,0,0,1,1.6,1.419v3.3l-3.439.822Zm-.1-3.721A1.824,1.824,0,1,1,5.408,3.648,1.824,1.824,0,0,1,3.583,1.824Zm3.649,0h0Z" transform="translate(7.188 4.095)" fill="#9dbee0"/>
    </g>
  </g>
</svg>
