<svg xmlns="http://www.w3.org/2000/svg" width="32" height="32" viewBox="0 0 32 32">
  <g id="Group_146504" data-name="Group 146504" transform="translate(-1063 3871)">
    <rect id="Rectangle_22475" data-name="Rectangle 22475" width="32" height="32" rx="12" transform="translate(1063 -3871)" fill="#edf6ff"/>
    <g id="icon_bond" transform="translate(1067 -3867)">
      <rect id="Rectangle_22893" data-name="Rectangle 22893" width="24" height="24" fill="none"/>
      <path id="Path_107653" data-name="Path 107653" d="M3.625,17.232,2.608,15.48H.587A.578.578,0,0,1,.293,15.4a.585.585,0,0,1-.215-.8l1.49-2.559a4.207,4.207,0,0,0,1,1.753A4.986,4.986,0,0,0,4.95,14.966a6.464,6.464,0,0,1,.7.2,1.3,1.3,0,0,1,.157.082l-1.168,1.98a.583.583,0,0,1-.509.292A.583.583,0,0,1,3.625,17.232Zm9.509.2a.575.575,0,0,1-.215-.214L11.75,15.229l.152-.076a6.81,6.81,0,0,1,.678-.2,4.935,4.935,0,0,0,2.384-1.168,4.245,4.245,0,0,0,1-1.752L17.451,14.6a.573.573,0,0,1-.215.781.6.6,0,0,1-.293.078h-2l-1.016,1.752a.581.581,0,0,1-.8.214ZM6.8,14.481a5.515,5.515,0,0,0-.725-.385,5.8,5.8,0,0,0-.817-.257A3.926,3.926,0,0,1,3.4,12.956,3.93,3.93,0,0,1,2.519,11.1a5.893,5.893,0,0,0-.256-.812,5.571,5.571,0,0,0-.386-.725A3.905,3.905,0,0,1,1.17,7.594a3.91,3.91,0,0,1,.707-1.957,5.619,5.619,0,0,0,.386-.724,5.727,5.727,0,0,0,.256-.824A3.93,3.93,0,0,1,3.4,2.226,3.916,3.916,0,0,1,5.253,1.35a6.829,6.829,0,0,0,.818-.257A5.509,5.509,0,0,0,6.8.707,3.913,3.913,0,0,1,8.764,0a3.905,3.905,0,0,1,1.963.707,5.52,5.52,0,0,0,.725.386,6.867,6.867,0,0,0,.817.257,3.917,3.917,0,0,1,1.864.888,3.935,3.935,0,0,1,.876,1.852,5.729,5.729,0,0,0,.256.812,5.917,5.917,0,0,0,.386.724,3.9,3.9,0,0,1,.707,1.969,3.9,3.9,0,0,1-.707,1.963,5.56,5.56,0,0,0-.386.724,5.892,5.892,0,0,0-.256.818,3.933,3.933,0,0,1-.876,1.863,3.931,3.931,0,0,1-1.858.876,5.728,5.728,0,0,0-.817.257,5.458,5.458,0,0,0-.725.385,3.9,3.9,0,0,1-1.969.707A3.889,3.889,0,0,1,6.8,14.481Z" transform="translate(3.238 3.238)" fill="#9dbee0"/>
      <text id="_" data-name="₹" transform="translate(9 15)" fill="#fff" stroke="rgba(0,0,0,0)" stroke-width="1" font-size="11" font-family="Roboto-Regular, Roboto"><tspan x="0" y="0">₹</tspan></text>
    </g>
  </g>
</svg>
