<svg xmlns="http://www.w3.org/2000/svg" width="24" height="24" viewBox="0 0 24 24">
  <path id="facebook_5_" data-name="facebook (5)" d="M22.675,0H1.324A1.325,1.325,0,0,0,0,1.325V22.676A1.325,1.325,0,0,0,1.325,24h11.5V14.719H9.7V11.086H12.82V8.412c0-3.1,1.893-4.788,4.658-4.788a25.645,25.645,0,0,1,2.795.143v3.24H18.366c-1.5,0-1.8.715-1.8,1.764v2.314h3.6L19.7,14.719H16.57V24h6.1A1.324,1.324,0,0,0,24,22.676h0V1.324A1.324,1.324,0,0,0,22.675,0Zm0,0" transform="translate(0 0)" fill="#a0a0a0" opacity="0.6"/>
</svg>