<svg id="instagram-sketched" xmlns="http://www.w3.org/2000/svg" width="24" height="24" viewBox="0 0 24 24">
  <path id="Path_102975" data-name="Path 102975" d="M214.867,212.934A1.934,1.934,0,1,1,212.934,211,1.934,1.934,0,0,1,214.867,212.934Zm0,0" transform="translate(-200.934 -200.934)" fill="#a0a0a0" opacity="0.6"/>
  <path id="Path_102976" data-name="Path 102976" d="M130.668,120h-7.649A3.023,3.023,0,0,0,120,123.019v7.649a3.023,3.023,0,0,0,3.019,3.019h7.649a3.023,3.023,0,0,0,3.019-3.019v-7.649A3.023,3.023,0,0,0,130.668,120Zm-3.824,10.618a3.774,3.774,0,1,1,3.774-3.774A3.778,3.778,0,0,1,126.844,130.618Zm4.328-7.347a.755.755,0,1,1,.755-.755A.755.755,0,0,1,131.171,123.271Zm0,0" transform="translate(-114.844 -114.844)" fill="#a0a0a0" opacity="0.6"/>
  <path id="Path_102977" data-name="Path 102977" d="M17.672,0H6.328A6.335,6.335,0,0,0,0,6.328V17.672A6.335,6.335,0,0,0,6.328,24H17.672A6.335,6.335,0,0,0,24,17.672V6.328A6.335,6.335,0,0,0,17.672,0Zm2.109,15.563a4.224,4.224,0,0,1-4.219,4.219H8.438a4.224,4.224,0,0,1-4.219-4.219V8.438A4.224,4.224,0,0,1,8.438,4.219h7.125a4.224,4.224,0,0,1,4.219,4.219Zm0,0" fill="#a0a0a0" opacity="0.6"/>
</svg>