<svg xmlns="http://www.w3.org/2000/svg" width="32" height="32" viewBox="0 0 32 32">
  <g id="Group_146504" data-name="Group 146504" transform="translate(-1063 3871)">
    <rect id="Rectangle_22475" data-name="Rectangle 22475" width="32" height="32" rx="12" transform="translate(1063 -3871)" fill="#edf6ff"/>
    <g id="icon_mf" transform="translate(1067 -3867)">
      <rect id="Rectangle_22896" data-name="Rectangle 22896" width="24" height="24" fill="none"/>
      <path id="Path_107576" data-name="Path 107576" d="M78.331,40.665l2.1-2.1a1.357,1.357,0,1,1,2.668,0l2.1,2.094a1.369,1.369,0,0,1,.732,0l2.1-2.094a1.359,1.359,0,1,1,.86,1.02L86.864,41.6a1.359,1.359,0,1,1-2.613,0l-2.011-2.016a1.354,1.354,0,0,1-.952,0L79.27,41.6a1.357,1.357,0,1,1-.939-.939Zm12.4,8.589H76.586a.987.987,0,0,0,0,1.974H90.73a.987.987,0,1,0,0-1.974Zm-9.577-7.679a.627.627,0,0,0-.62.627v6.042H83V42.2a.627.627,0,0,0-.627-.627Zm8.584,0H88.523a.627.627,0,0,0-.627.627v6.042h2.467V42.2a.627.627,0,0,0-.62-.627Zm-3.724,2.878H84.8a.627.627,0,0,0-.628.63v3.161h2.467V45.082a.627.627,0,0,0-.625-.63Zm-8.584-.263h0a.627.627,0,0,0-.627.627v3.427H79.27V44.816a.627.627,0,0,0-.627-.627Z" transform="translate(-71.658 -32.092)" fill="#9dbee0"/>
    </g>
  </g>
</svg>
