<svg xmlns="http://www.w3.org/2000/svg" width="17.803" height="34.086" viewBox="0 0 17.803 34.086">
  <path id="Union_8" data-name="Union 8" d="M8664.9,14830.457l-5.532,3.63,1.468-6.835-4.837-4.55,6.37-.588,2.531-6.489,2.532,6.489,6.369.588-4.836,4.55,1.471,6.835Zm4.047,1.456-1.075-5,3.629-3.417-4.776-.439-1.824-4.676-1.824,4.676-4.776.439,3.63,3.417-1.072,5,4.043-2.65Zm-4.545-19.054-4.792,3.142,1.273-5.923-4.232-3.983,5.572-.51,2.179-5.584,2.178,5.584,5.573.51-4.233,3.983,1.27,5.923Z" transform="translate(-8655.998 -14800.001)" fill="#e8b016"/>
</svg>
