<svg xmlns="http://www.w3.org/2000/svg" width="10.516" height="14.021" viewBox="0 0 10.516 14.021">
  <g id="noun-pin-3888279" transform="translate(-140.006)">
    <path id="Path_2555" data-name="Path 2555" d="M213.505,0a3.505,3.505,0,0,0-.438,6.983v3.97a.438.438,0,1,0,.876,0V6.983A3.505,3.505,0,0,0,213.505,0Z" transform="translate(-68.241 0)" fill="#da291c"/>
    <path id="Path_2556" data-name="Path 2556" d="M143.055,364.459a.438.438,0,0,1-.3.545,4.161,4.161,0,0,0-1.437.7.981.981,0,0,0-.441.721c0,.327.312.767,1.155,1.15a8.944,8.944,0,0,0,6.454,0c.843-.383,1.155-.823,1.155-1.15a.981.981,0,0,0-.441-.721,4.161,4.161,0,0,0-1.437-.7.438.438,0,0,1,.249-.84,5.018,5.018,0,0,1,1.743.858,1.839,1.839,0,0,1,.761,1.4c0,.882-.767,1.538-1.668,1.948a9.8,9.8,0,0,1-7.179,0c-.9-.41-1.669-1.066-1.669-1.948a1.838,1.838,0,0,1,.761-1.4,5.019,5.019,0,0,1,1.743-.858.438.438,0,0,1,.545.3Z" transform="translate(0 -355.028)" fill="#da291c"/>
  </g>
</svg>
